<svg width="63" height="98" viewBox="0 0 63 98" fill="none" xmlns="http://www.w3.org/2000/svg">
<path fill-rule="evenodd" clip-rule="evenodd" d="M13.6239 2.21885C13.6239 1.58372 13.1091 1.06885 12.4739 1.06885C11.8388 1.06885 11.3239 1.58372 11.3239 2.21885V4.04287H9.38815C8.75303 4.04287 8.23816 4.55775 8.23816 5.19287C8.23816 5.828 8.75303 6.34287 9.38815 6.34287H11.3239V8.30246L3.85016 28.9105L3.99555 28.9632L3.98541 28.9779L2.61403 30.9619L2.41346 31.2521L2.41009 31.6048L2.0716 67.0275L0.329315 68.8479L0.0101318 69.1814V69.6431V95.1433V96.2934H1.16014H61.8435H62.9935V95.1433V69.6431V69.1545L62.6418 68.8153L61.2792 67.5012V33.2692V33.0118L61.1695 32.7789L59.4553 29.1416L58.6569 27.4474L58.5712 27.5575L51.3372 6.65634V6.34287H53.2727C53.9078 6.34287 54.4227 5.828 54.4227 5.19287C54.4227 4.55775 53.9078 4.04287 53.2727 4.04287H51.3372V2.21885C51.3372 1.58372 50.8224 1.06885 50.1872 1.06885C49.5521 1.06885 49.0372 1.58372 49.0372 2.21885V4.04287H47.1015C46.4663 4.04287 45.9515 4.55775 45.9515 5.19287C45.9515 5.828 46.4663 6.34287 47.1015 6.34287H49.0372V6.67887L42.4713 28.8105L42.3258 29.0712L39.9259 33.3699L39.78 33.6313V33.9305V56.2888L32.1371 47.392V44.9991H34.0725C34.7076 44.9991 35.2225 44.4842 35.2225 43.849C35.2225 43.2139 34.7076 42.6991 34.0725 42.6991H32.1371V40.875C32.1371 40.2399 31.6222 39.725 30.9871 39.725C30.3519 39.725 29.8371 40.2399 29.8371 40.875V42.6991H27.9013C27.2662 42.6991 26.7513 43.2139 26.7513 43.849C26.7513 44.4842 27.2662 44.9991 27.9013 44.9991H29.8371V47.4045L22.8808 55.7911V51.5873H22.5379V32.2772V31.9968L22.4089 31.7479L21.3041 29.6167L21.4387 29.5673L13.6239 8.30048V6.34287H15.5594C16.1945 6.34287 16.7094 5.828 16.7094 5.19287C16.7094 4.55775 16.1945 4.04287 15.5594 4.04287H13.6239V2.21885ZM50.2708 10.6073L56.887 29.7234L55.4501 31.5712L55.208 31.8827V32.2772V35.0952H46.1941V33.2692V33.0118L46.0844 32.7789L44.6169 29.6651L50.2708 10.6073ZM18.854 29.2017L12.4809 11.8583L6.15816 29.2926L7.51582 30.864L7.79563 31.1878V31.6158V35.0952H16.4666V32.2772V31.8333L16.7649 31.5045L18.854 29.2017ZM20.5808 62.5242H20.2843L20.2379 62.58V62.5242H4.41474L4.36715 67.5047L4.36279 67.9599L4.04801 68.2888L2.31014 70.1048V80.7281H20.5808V62.5242ZM2.31014 93.9933V83.028H20.5808V93.9933H18.0813V92.0445C18.0813 88.7585 15.4175 86.0947 12.1315 86.0947C8.84547 86.0947 6.18165 88.7585 6.18165 92.0445V93.9933H2.31014ZM15.7813 93.9933V92.0445C15.7813 90.0288 14.1472 88.3948 12.1315 88.3948C10.1157 88.3948 8.48165 90.0288 8.48165 92.0445V93.9933H15.7813ZM22.8808 93.9933V83.028H39.7803V93.9933H37.2803V93.8288C37.2803 90.7709 35.7304 87.9213 33.1634 86.2596C32.161 85.6106 30.8755 85.5965 29.8588 86.2077C27.1262 87.8503 25.4194 90.8033 25.3813 93.9933H22.8808ZM27.6815 93.9933H34.9803V93.8288C34.9803 91.5509 33.8258 89.4282 31.9135 88.1903C31.655 88.0229 31.3145 88.0162 31.0438 88.179C28.9971 89.4092 27.7195 91.6172 27.6815 93.9933ZM42.0803 93.9933V83.028H60.6935V93.9933H56.4793V92.0445C56.4793 88.7585 53.8155 86.0947 50.5295 86.0947C47.2435 86.0947 44.5797 88.7585 44.5797 92.0445V93.9933H42.0803ZM54.1793 92.0445V93.9933H46.8797V92.0445C46.8797 90.0288 48.5138 88.3948 50.5295 88.3948C52.5452 88.3948 54.1793 90.0288 54.1793 92.0445ZM42.0803 80.7281H60.6935V70.1317L59.3309 68.8175L58.9792 68.4783V67.9897V62.5242H42.0803V80.7281ZM22.8808 80.7281H39.7803V62.5242H22.8808V80.7281ZM20.2379 59.3923V60.2241H4.43672L4.70661 31.9795L5.03261 31.5079L5.49563 32.0438V36.2453V37.3952H6.64563H17.6166H18.7666V36.2453V32.7211L19.7569 31.6297L20.2379 32.5575V59.3923ZM39.7803 60.2241H22.8808V59.3937L31.003 49.6016L39.7803 59.8187V60.2241ZM58.9792 60.2241H42.0803V51.5873H42.08V34.2299L43.2434 32.1459L43.8941 33.5266V36.2453V37.3952H45.0441H56.358H57.508V36.2453V32.6717L58.1732 31.8162L58.9792 33.5266V60.2241ZM9.85284 43.5154C9.85284 42.8803 9.33797 42.3654 8.70284 42.3654C8.06771 42.3654 7.55283 42.8803 7.55283 43.5154V56.0811C7.55283 56.7162 8.06771 57.231 8.70284 57.231C9.33797 57.231 9.85284 56.7162 9.85284 56.0811V43.5154ZM16.0239 43.5154C16.0239 42.8803 15.5091 42.3654 14.8739 42.3654C14.2388 42.3654 13.7239 42.8803 13.7239 43.5154V56.0811C13.7239 56.7162 14.2388 57.231 14.8739 57.231C15.5091 57.231 16.0239 56.7162 16.0239 56.0811V43.5154ZM47.1013 42.3654C47.7365 42.3654 48.2513 42.8803 48.2513 43.5154V56.0811C48.2513 56.7162 47.7365 57.231 47.1013 57.231C46.4662 57.231 45.9513 56.7162 45.9513 56.0811V43.5154C45.9513 42.8803 46.4662 42.3654 47.1013 42.3654ZM54.4224 43.5154C54.4224 42.8803 53.9075 42.3654 53.2724 42.3654C52.6373 42.3654 52.1224 42.8803 52.1224 43.5154V56.0811C52.1224 56.7162 52.6373 57.231 53.2724 57.231C53.9075 57.231 54.4224 56.7162 54.4224 56.0811V43.5154ZM51.609 64.457L50.8246 63.8027L50.0823 64.5044L48.2594 66.2279C45.9106 68.4483 44.5797 71.538 44.5797 74.7702V76.5829V77.7329H45.7297H56.015H57.165V76.5829V74.5941C57.165 71.1073 55.6171 67.8004 52.9396 65.5669L51.609 64.457ZM49.8394 67.8992L50.9201 66.8775L51.4663 67.3332C53.6199 69.1297 54.865 71.7895 54.865 74.5941V75.433H46.8797V74.7702C46.8797 72.1704 47.9502 69.6852 49.8394 67.8992ZM11.7407 63.8027L12.5251 64.457L13.8557 65.5669C16.5333 67.8004 18.0811 71.1073 18.0811 74.5941V76.5829V77.7329H16.9311H6.64582H5.49582V76.5829V74.7702C5.49582 71.538 6.8267 68.4483 9.1755 66.2279L10.9985 64.5044L11.7407 63.8027ZM11.8363 66.8775L10.7556 67.8992C8.86631 69.6852 7.79581 72.1704 7.79581 74.7702V75.433H15.7811V74.5941C15.7811 71.7895 14.5361 69.1297 12.3824 67.3332L11.8363 66.8775ZM29.7018 65.9799C30.1125 65.8837 30.5429 65.8325 30.9872 65.8325C31.5384 65.8325 32.068 65.9112 32.5654 66.0573L31.579 67.5522C31.3866 67.5168 31.1889 67.4985 30.9877 67.4985C30.8948 67.4985 30.8026 67.5023 30.7113 67.51L29.7018 65.9799ZM34.085 69.813H36.2147C35.9659 68.78 35.3899 67.8587 34.5911 67.1634L33.5484 68.7438C33.7918 69.0574 33.9766 69.4184 34.085 69.813ZM36.2157 72.1131H33.8167C33.7071 72.3124 33.5762 72.4982 33.4272 72.6679L34.7297 74.6422C35.4576 73.962 35.9821 73.0872 36.2157 72.1131ZM30.9877 73.7665C31.1204 73.7665 31.2517 73.7585 31.3809 73.7429L32.7487 75.8159C32.1989 75.9985 31.6067 76.0981 30.9872 76.0981C30.474 76.0981 29.9795 76.0297 29.5123 75.9025L30.9221 73.7658C30.9439 73.7662 30.9658 73.7665 30.9877 73.7665ZM28.7516 72.8792L27.4618 74.834C26.6211 74.1304 26.0149 73.1814 25.7587 72.1131H28.1586C28.3156 72.3987 28.5165 72.6566 28.7516 72.8792ZM27.8903 69.813H25.7598C26.0311 68.6862 26.6917 67.6926 27.606 66.9799L28.6204 68.5174C28.2808 68.8787 28.0259 69.3197 27.8903 69.813ZM30.9872 63.5324C26.794 63.5324 23.3232 66.8214 23.3232 70.9652C23.3232 75.109 26.794 78.398 30.9872 78.398C35.1804 78.398 38.6513 75.109 38.6513 70.9652C38.6513 66.8214 35.1804 63.5324 30.9872 63.5324ZM30.9877 69.7984C30.4472 69.7984 30.0806 70.2106 30.0806 70.6324C30.0806 71.0542 30.4472 71.4666 30.9877 71.4666C31.5282 71.4666 31.8947 71.0542 31.8947 70.6324C31.8947 70.2106 31.5282 69.7984 30.9877 69.7984Z" fill="#0A8BFE"/>
</svg>
