<svg width="77" height="80" viewBox="0 0 77 80" fill="none" xmlns="http://www.w3.org/2000/svg">
<path fill-rule="evenodd" clip-rule="evenodd" d="M73.2085 69.9611H74.7321C75.6104 69.9611 76.3222 70.6518 76.3222 71.5041V77.6759C76.3222 78.5275 75.6104 79.2189 74.7321 79.2189H1.59006C0.7118 79.2189 0 78.5275 0 77.6759V71.5041C0 70.6518 0.7118 69.9611 1.59006 69.9611H3.11366V42.6522H1.59006C0.7118 42.6522 0 41.9615 0 41.1093C0 40.257 0.7118 39.5663 1.59006 39.5663H3.11366V35.09C3.11366 34.2943 3.73415 33.6398 4.53105 33.556C4.30558 31.4375 5.18694 29.2851 7.02855 27.7602L11.8068 23.8022C12.4012 23.3091 13.277 23.3097 13.8714 23.8015L18.6503 27.7596C18.9155 27.9795 19.1596 28.2134 19.385 28.4576V26.4776C19.385 25.6253 20.0968 24.9347 20.9751 24.9347H22.2602C22.8732 18.9447 27.013 13.9464 32.6304 11.9291V6.54373C32.6304 5.69148 33.3422 5.00076 34.2204 5.00076H36.5713V1.76172C36.5713 0.909471 37.2831 0.21875 38.1614 0.21875C39.039 0.21875 39.7515 0.909471 39.7515 1.76172V5.00076H42.1018C42.9794 5.00076 43.6918 5.69148 43.6918 6.54373V11.9291C49.3092 13.9464 53.4489 18.9447 54.062 24.9347H55.3471C56.2253 24.9347 56.9371 25.6253 56.9371 26.4776V28.4576C57.1626 28.2134 57.4067 27.9796 57.6725 27.7602L62.4508 23.8022C63.0452 23.3097 63.9204 23.3097 64.5154 23.8022L69.2936 27.7602C71.1352 29.2851 72.0166 31.4375 71.7911 33.556C72.588 33.6398 73.2085 34.2943 73.2085 35.09V39.5663H74.7321C75.6104 39.5663 76.3222 40.2576 76.3222 41.1093C76.3222 41.9615 75.6104 42.6522 74.7321 42.6522H73.2085V69.9611ZM65.0731 69.9611H70.0284V42.6522H56.9371V44.5243C57.6874 44.6479 58.2595 45.2802 58.2595 46.0438C58.2595 46.8069 57.6874 47.4391 56.9371 47.5626V69.9611H61.893V52.3061C61.893 51.4538 62.6048 50.7631 63.4831 50.7631C64.3607 50.7631 65.0731 51.4538 65.0731 52.3061V69.9611ZM48.4713 62.3107V69.9611H53.7576V47.5868H22.5645V69.9611H27.8509V62.3107H27.4732C26.5956 62.3107 25.8832 61.6199 25.8832 60.7677C25.8832 59.916 26.5956 59.2248 27.4732 59.2248H27.9739C28.7403 54.438 33.0167 50.7631 38.1608 50.7631C43.3055 50.7631 47.5819 54.438 48.3483 59.2248H48.849C49.7266 59.2248 50.439 59.916 50.439 60.7677C50.439 61.6199 49.7266 62.3107 48.849 62.3107H48.4713ZM31.2117 59.2248H45.1105C44.3856 56.1502 41.5465 53.849 38.1614 53.849C34.7763 53.849 31.9366 56.1502 31.2117 59.2248ZM53.757 34.9422V28.0205H39.7409L53.757 34.9422ZM33.0496 39.0015H22.5645V44.5009H53.757V39.0015H43.2726C42.5937 41.1141 40.5589 42.6522 38.1608 42.6522C35.7627 42.6522 33.7279 41.1141 33.0496 39.0015ZM35.9881 37.458C35.9881 38.6207 36.9627 39.5663 38.1608 39.5663C39.3589 39.5663 40.3334 38.6207 40.3334 37.458C40.3334 36.2959 39.3589 35.3503 38.1608 35.3503C36.9627 35.3503 35.9881 36.2959 35.9881 37.458ZM43.2726 35.9156H48.7167L38.1608 30.7027L27.6049 35.9156H33.0496C33.7279 33.8024 35.7627 32.2644 38.1608 32.2644C40.5589 32.2644 42.5937 33.8024 43.2726 35.9156ZM56.9371 38.9775V39.5663H70.0284V36.6329H69.7023H69.698H69.6924H58.0111C58.1676 36.8716 58.2595 37.1542 58.2595 37.4586C58.2595 38.2216 57.6874 38.854 56.9371 38.9775ZM63.4831 27.0044L59.7365 30.1073C58.6135 31.0373 58.1309 32.3186 58.3856 33.547H68.5806C68.8353 32.3186 68.3526 31.0373 67.229 30.1073L63.4831 27.0044ZM40.5117 8.0867H35.8105V11.1395C36.5776 11.0292 37.362 10.9713 38.1608 10.9713C38.9595 10.9713 39.744 11.0292 40.5117 11.1395V8.0867ZM50.8583 24.9347C50.0726 18.8122 44.68 14.0573 38.1608 14.0573C31.6415 14.0573 26.249 18.8127 25.4633 24.9359C25.9555 24.9426 26.3935 25.1661 26.6805 25.5124H36.207C36.4984 25.1602 36.9458 24.9347 37.4475 24.9347H50.8583ZM36.2234 27.4603C36.3033 27.5536 36.3945 27.6378 36.4947 27.7108L22.5645 34.9422V28.0205H25.4403C25.9338 28.0205 26.3748 27.8025 26.6664 27.4603H36.2234ZM12.8391 27.0044L9.09253 30.1073C7.96955 31.0373 7.48694 32.3186 7.7416 33.547H17.936C18.1913 32.3186 17.708 31.0373 16.5851 30.1073L12.8391 27.0044ZM18.3111 36.6329H6.29315V39.5663H19.3844V38.9775C18.6341 38.854 18.0627 38.2216 18.0627 37.4586C18.0627 37.1542 18.1546 36.8716 18.3111 36.6329ZM19.3844 42.6522H6.29315V69.9611H11.249V52.3061C11.249 51.4538 11.9608 50.7631 12.8391 50.7631C13.7167 50.7631 14.4292 51.4538 14.4292 52.3061V69.9611H19.3844V47.5626C18.6341 47.4391 18.0627 46.8069 18.0627 46.0438C18.0627 45.2802 18.6341 44.6479 19.3844 44.5243V42.6522ZM3.1795 76.1329H73.1421V73.0471H55.3502H55.3471H55.344H44.5204C43.6428 73.0471 42.9303 72.3557 42.9303 71.5041C42.9303 70.6518 43.6428 69.9611 44.5204 69.9611H45.2912V62.3107H31.0304V69.9611H31.7999C32.6782 69.9611 33.39 70.6518 33.39 71.5041C33.39 72.3557 32.6782 73.0471 31.7999 73.0471H20.9776H20.9745H20.9714H3.1795V76.1329Z" fill="#0A8BFE"/>
</svg>
