<svg width="107" height="80" viewBox="0 0 107 80" fill="none" xmlns="http://www.w3.org/2000/svg">
<g clip-path="url(#clip0_1_617)">
<path d="M104.985 46.3166H81.3613L60.5527 30.99V19.9529V18.3755V2.2509C60.5527 1.12763 59.6515 0.21875 58.5377 0.21875C57.4238 0.21875 56.5226 1.12763 56.5226 2.2509V6.31521H50.4774V2.2509C50.4774 1.12763 49.5762 0.21875 48.4623 0.21875C47.3485 0.21875 46.4473 1.12763 46.4473 2.2509V17.9209C46.4473 18.0016 46.4835 18.0696 46.4926 18.1479C46.4835 18.2261 46.4473 18.2948 46.4473 18.375V30.99L25.6387 46.3166H2.01507C0.901238 46.3166 0 47.2255 0 48.3487V76.7989C0 77.9221 0.901238 78.8309 2.01507 78.8309H26.2966H80.7034H104.985C106.099 78.8309 107 77.9221 107 76.7989V48.3487C107 47.2255 106.099 46.3166 104.985 46.3166ZM50.3711 46.3166H47.4583L50.4321 32.5243C50.4421 32.4785 50.4275 32.4354 50.4341 32.3901C50.4562 32.2692 50.4774 32.1474 50.4774 32.0224V20.4076H56.5226V32.0224C56.5226 32.1972 56.5488 32.3679 56.5916 32.5335C56.6007 32.5746 56.5896 32.6147 56.6017 32.6553L60.516 46.3171H56.6294C55.5156 46.3171 54.6143 47.226 54.6143 48.3493V54.4456H52.3867V48.3493C52.3862 47.2255 51.4849 46.3166 50.3711 46.3166ZM32.4723 46.3166L45.3828 36.807L43.3325 46.3166H32.4723ZM64.7108 46.3166L62.0852 37.1516L74.5277 46.3166H64.7108ZM56.5226 10.3795V16.3428H50.4774V10.3795H56.5226ZM4.03013 50.3809H24.2815V74.7666H22.2665V64.6059C22.2665 63.4827 21.3652 62.5737 20.2514 62.5737C19.1376 62.5737 18.2363 63.4827 18.2363 64.6059V74.7666H16.2213V64.6059C16.2213 63.4827 15.32 62.5737 14.2062 62.5737C13.0924 62.5737 12.1911 63.4827 12.1911 64.6059V74.7666H10.1761V64.6059C10.1761 63.4827 9.27485 62.5737 8.16102 62.5737C7.04719 62.5737 6.14595 63.4827 6.14595 64.6059V74.7666C-0.953188 74.7666 9.25543 74.7666 4.03013 74.7666V50.3809ZM28.3117 50.3809H48.356V56.4773C48.356 57.6005 49.2573 58.5094 50.3711 58.5094H56.6289C57.7427 58.5094 58.644 57.6005 58.644 56.4773V50.3809H78.6883V74.7666H76.6733V54.4451C76.6733 53.3218 75.772 52.4129 74.6582 52.4129C73.5444 52.4129 72.6431 53.3218 72.6431 54.4451V74.7666H70.6281V54.4451C70.6281 53.3218 69.7268 52.4129 68.613 52.4129C67.4992 52.4129 66.5979 53.3218 66.5979 54.4451V74.7666H64.5829V54.4451C64.5829 53.3218 63.6816 52.4129 62.5678 52.4129C61.454 52.4129 60.5527 53.3218 60.5527 54.4451V74.7666H58.5377V64.6059C58.5377 63.4827 57.6364 62.5737 56.5226 62.5737C55.4088 62.5737 54.5075 63.4827 54.5075 64.6059V74.7666H52.4925V64.6059C52.4925 63.4827 51.5912 62.5737 50.4774 62.5737C49.3636 62.5737 48.4623 63.4827 48.4623 64.6059V74.7666H46.4473V54.4451C46.4473 53.3218 45.546 52.4129 44.4322 52.4129C43.3184 52.4129 42.4171 53.3218 42.4171 54.4451V74.7666H40.4021V54.4451C40.4021 53.3218 39.5008 52.4129 38.387 52.4129C37.2732 52.4129 36.3719 53.3218 36.3719 54.4451V74.7666H34.3569V54.4451C34.3569 53.3218 33.4556 52.4129 32.3418 52.4129C31.228 52.4129 30.3267 53.3218 30.3267 54.4451V74.7666H28.3117V50.3809ZM102.97 74.7666C96.088 74.7666 106.003 74.7666 100.854 74.7666V64.6059C100.854 63.4827 99.9528 62.5737 98.839 62.5737C97.7252 62.5737 96.8239 63.4827 96.8239 64.6059V74.7666H94.8089V64.6059C94.8089 63.4827 93.9076 62.5737 92.7938 62.5737C91.68 62.5737 90.7787 63.4827 90.7787 64.6059V74.7666H88.7637V64.6059C88.7637 63.4827 87.8624 62.5737 86.7486 62.5737C85.6348 62.5737 84.7335 63.4827 84.7335 64.6059V74.7666H82.7185V50.3809H102.97V74.7666Z" fill="#0A8BFE"/>
</g>
<defs>
<clipPath id="clip0_1_617">
<rect width="107" height="79" fill="white" transform="translate(0 0.21875)"/>
</clipPath>
</defs>
</svg>
