<svg width="78" height="98" viewBox="0 0 78 98" fill="none" xmlns="http://www.w3.org/2000/svg">
<g clip-path="url(#clip0_1_561)">
<path d="M76.6999 68.0045H75.3999V64.2391L77.9869 46.3291C78.0133 46.1467 77.9997 45.961 77.9471 45.7843C77.8945 45.6075 77.8041 45.444 77.6821 45.3048C77.56 45.1658 77.4092 45.0541 77.2397 44.9776C77.0703 44.9011 76.8862 44.8617 76.6999 44.8617H74.0999C70.0016 44.8486 66.04 46.3183 62.9614 48.9939L66.279 30.9487C66.3131 30.7635 66.3055 30.573 66.257 30.3909C66.2085 30.2088 66.12 30.0395 65.998 29.8949C65.876 29.7503 65.7234 29.634 65.5509 29.5542C65.3785 29.4744 65.1904 29.4331 65 29.4331H62.4C58.2374 29.4248 54.1583 30.5882 50.6394 32.7873C48.1083 29.3545 44.7923 26.5623 40.962 24.6386C37.1318 22.715 32.8958 21.7145 28.6 21.7188H26C25.8138 21.7188 25.6297 21.7583 25.4603 21.8348C25.2908 21.9113 25.14 22.0229 25.0179 22.162C24.8959 22.3012 24.8055 22.4647 24.7529 22.6414C24.7003 22.8181 24.6867 23.0039 24.713 23.1862L26.1034 32.8131C22.5708 30.6062 18.4783 29.4343 14.3 29.4331H11.7001C11.5096 29.4331 11.3216 29.4744 11.1491 29.5542C10.9766 29.634 10.824 29.7503 10.702 29.8949C10.58 30.0395 10.4916 30.2088 10.443 30.3909C10.3945 30.573 10.387 30.7635 10.421 30.9487L12.2137 40.701C10.3802 40.052 8.44748 39.7197 6.50006 39.7188H1.30007C1.09882 39.7188 0.90031 39.7649 0.720183 39.8538C0.540056 39.9424 0.383229 40.0715 0.262055 40.2304C0.14088 40.3892 0.0586664 40.5739 0.0218898 40.7696C-0.0148867 40.9653 -0.00522197 41.1666 0.0501226 41.358L4.77659 57.7188H3.90007C3.55528 57.7188 3.22463 57.8542 2.98083 58.0953C2.73703 58.3364 2.60007 58.6635 2.60007 59.0045V68.0045H1.30007C0.955289 68.0045 0.62463 68.1399 0.380833 68.3811C0.137036 68.6222 7.25925e-05 68.9492 7.25925e-05 69.2901V74.433C7.25925e-05 74.774 0.137036 75.1011 0.380833 75.3422C0.62463 75.5833 0.955289 75.7188 1.30007 75.7188H76.6999C77.0447 75.7188 77.3754 75.5833 77.6192 75.3422C77.863 75.1011 77.9999 74.774 77.9999 74.433V69.2901C77.9999 68.9492 77.863 68.6222 77.6192 68.3811C77.3754 68.1399 77.0447 68.0045 76.6999 68.0045ZM54.6 68.0045V64.1474C54.6 63.8064 54.463 63.4794 54.2192 63.2382C53.9754 62.9971 53.6448 62.8616 53.3 62.8616H48.1C47.7552 62.8616 47.4245 62.9971 47.1808 63.2382C46.937 63.4794 46.8 63.8064 46.8 64.1474V68.0045H41.6V64.1474C41.6 63.8064 41.463 63.4794 41.2192 63.2382C40.9754 62.9971 40.6448 62.8616 40.3 62.8616H35.1C34.7552 62.8616 34.4246 62.9971 34.1808 63.2382C33.937 63.4794 33.8 63.8064 33.8 64.1474V68.0045H20.0386L10.0193 58.0953C9.8986 57.9759 9.75528 57.8813 9.59755 57.8167C9.43983 57.7519 9.27078 57.7188 9.10006 57.7188H7.80006V55.1474H14.3C14.5567 55.1474 14.8076 55.0723 15.0211 54.9314L18.5936 52.5758H26.8192L35.554 59.9807C35.7896 60.1804 36.0897 60.2901 36.4 60.2901H67.1438L72.7999 64.7653V68.0045H54.6ZM52 68.0045H49.4V65.433H52V68.0045ZM39 68.0045H36.4V65.433H39V68.0045ZM53.3 57.7188H48.1V49.8125L53.3 56.2411V57.7188ZM45.5 57.7188H39.1048L45.5 49.8125V57.7188ZM74.0999 47.4331H75.201L73.1349 61.7366L68.4125 58.0005C68.1818 57.8181 67.8953 57.7187 67.6 57.7188H60.3411C61.1894 54.7565 62.9922 52.1492 65.4755 50.2927C67.9588 48.4363 70.987 47.4321 74.0999 47.4331ZM63.4422 32.0044L59.5774 53.0259C58.7245 54.4346 58.0895 55.9614 57.6933 57.5558L55.9 55.3392V48.7188C55.9058 43.8661 54.5834 39.1022 52.0731 34.9326C55.167 33.0122 58.7472 31.9971 62.4 32.0044H63.4422ZM28.6 24.2902C31.8439 24.2893 35.0562 24.9206 38.0533 26.1479C41.0505 27.3753 43.7737 29.1747 46.0675 31.4432C48.3613 33.7118 50.1806 36.4052 51.4216 39.3694C52.6626 42.3335 53.3009 45.5105 53.3 48.7188V52.125L47.8151 45.3438C47.6933 45.1931 47.5389 45.0716 47.3631 44.9881C47.1874 44.9046 46.995 44.8612 46.8 44.8612C46.605 44.8612 46.4126 44.9046 46.2368 44.9881C46.0611 45.0716 45.9066 45.1931 45.7849 45.3438L36.225 57.1623L31.6913 53.3193L27.4989 24.2902H28.6ZM14.3 32.0044C18.7854 32.0051 23.1335 33.5345 26.612 36.335L28.6985 50.7824L28.146 50.3141C27.9104 50.1143 27.6103 50.0044 27.3 50.0044H18.2C17.9434 50.0044 17.6924 50.0796 17.4789 50.2204L16.7007 50.7337L13.2578 32.0044H14.3ZM6.50006 42.2901C8.67195 42.2908 10.8153 42.7794 12.7685 43.7188L14.3436 52.2878L13.9065 52.5758H6.50006C6.33609 52.576 6.17363 52.6069 6.02134 52.667L3.02257 42.2901H6.50006ZM5.20006 60.2901H8.56153L16.3615 68.0045H5.20006V60.2901ZM75.3999 73.1474H2.60007V70.5759H75.3999V73.1474Z" fill="#0A8BFE"/>
</g>
<defs>
<clipPath id="clip0_1_561">
<rect width="78" height="97" fill="white" transform="translate(0 0.21875)"/>
</clipPath>
</defs>
</svg>
