<svg width="83" height="91" viewBox="0 0 83 91" fill="none" xmlns="http://www.w3.org/2000/svg">
<path fill-rule="evenodd" clip-rule="evenodd" d="M70.5449 1.10596L68.3605 1.12734L67.035 16.9853L66.8546 16.4952L66.3625 15.1583L65.1957 15.9756H65.1956L65.1954 15.9758L65.1945 15.9764L65.1907 15.979L65.1758 15.9895L65.1174 16.0304L64.8979 16.1837C64.71 16.3148 64.4447 16.4996 64.1353 16.7143C63.516 17.1441 62.7225 17.6918 62.0204 18.1674C61.1986 18.7242 60.2667 19.4921 59.5585 20.1021C59.2003 20.4107 58.8913 20.6859 58.6716 20.8842C58.5617 20.9834 58.4738 21.0636 58.4131 21.1193L58.3429 21.184L58.3242 21.2013L58.3191 21.206L58.3177 21.2074L58.3172 21.2078L58.3171 21.2079C58.317 21.208 58.317 21.208 59.0644 22.011L58.317 21.208L57.9674 21.5334V22.011V25.889H57.8232V28.0831H57.9674V29.6304L57.3129 30.2879L56.9934 30.6089V31.0618V40.4144L56.624 40.6L56.0194 40.9037V41.5803V83.7819H53.5229V26.1651V26.0316L53.4908 25.902L52.4258 26.1651C53.4908 25.902 53.4908 25.9018 53.4907 25.9016L53.4906 25.9011L53.4903 25.8998L53.4893 25.8958L53.4858 25.882L53.4732 25.8324C53.4623 25.7898 53.4463 25.7284 53.4253 25.65C53.3833 25.4932 53.3212 25.2682 53.2394 24.9896C53.0761 24.4329 52.8334 23.6587 52.5145 22.7846C51.8849 21.059 50.9263 18.8537 49.6444 17.1802C48.4986 15.6843 46.5883 13.9658 45.026 12.6601C44.2333 11.9976 43.5091 11.4241 42.983 11.0161C42.7197 10.8119 42.5056 10.6488 42.3566 10.5363C42.2821 10.4801 42.2239 10.4364 42.1839 10.4066L42.138 10.3724L42.1258 10.3633L42.1224 10.3608L42.1215 10.3601L42.1212 10.3599C42.121 10.3598 42.121 10.3597 41.4689 11.242L42.121 10.3597L41.4345 9.85239L40.774 10.3931L37.7857 12.8395L37.3836 13.1687V13.6884V25.068H36.4885H30.1985H29.1014V26.1651V88.5486V89.6456H30.1985H56.4102H57.5072V89.6435H81.1416H82.2386V88.5465V41.5803V41.0333L81.8018 40.7041L81.2646 40.2994V30.8172V30.2702L80.8278 29.941L80.2907 29.5363V21.7664V21.3352L79.997 21.0194L79.1936 21.7664C79.997 21.0194 79.997 21.0194 79.9969 21.0193L79.9968 21.0191L79.9964 21.0187L79.9951 21.0173L79.9908 21.0127L79.9753 20.9962L79.9181 20.9354C79.8687 20.8833 79.7975 20.8085 79.7082 20.7162C79.53 20.5317 79.2786 20.276 78.9852 19.9895C78.4081 19.4262 77.6316 18.708 76.9167 18.1883C76.2187 17.6808 75.4104 17.123 74.7808 16.6947C74.4651 16.4799 74.1925 16.2965 73.9987 16.1667C73.9018 16.1018 73.8245 16.0502 73.7713 16.0148L73.7101 15.9741L73.694 15.9634L73.6898 15.9607L73.6887 15.9599L73.6884 15.9597H73.6883L73.0823 16.8741L73.6883 15.9596L72.4421 15.1338L72.1126 16.2773L70.5449 1.10596ZM60.1615 28.0831V30.0834V30.1808H78.0966V30.0834V28.0831H60.1615ZM78.0966 25.889V22.2058C77.9323 22.0363 77.7094 21.8103 77.4526 21.5596C76.8929 21.0133 76.2085 20.386 75.6265 19.963C75.0165 19.5194 74.3106 19.0301 73.7191 18.6263L72.6564 22.3148L70.511 22.1238L69.5691 13.0086L68.809 22.1024L66.6863 22.39L65.2863 18.5862C64.68 19.0065 63.9256 19.5269 63.2511 19.9839C62.5382 20.4668 61.6844 21.1667 60.9906 21.7644C60.6585 22.0505 60.3702 22.3069 60.1615 22.4951V25.889H78.0966ZM59.1875 32.3748H79.0706V35.1967H59.1875V32.3748ZM59.1875 37.3907V39.8462H79.0706V37.3907H59.1875ZM58.6448 42.0403H79.9291L80.0446 42.1273V44.8578H58.2135V42.2569L58.5828 42.0714L58.6448 42.0403ZM58.2135 47.0519V49.8695H80.0446V47.0519H58.2135ZM58.2135 52.0635H80.0446V54.8811H58.2135V52.0635ZM58.2135 57.0752V59.8927H80.0446V57.0752H58.2135ZM58.2135 62.0868H80.0446V64.8979H58.2135V62.0868ZM58.2135 67.092V69.9138H80.0446V67.092H58.2135ZM58.2135 72.1079H80.0446V74.9255H58.2135V72.1079ZM58.2135 77.1195V87.4495H64.4994V80.672V79.575H65.5965H71.9561H73.0531V80.672V87.4495H80.0446V77.1195H58.2135ZM66.6935 81.7691V87.4488H70.859V81.7691H66.6935ZM35.7942 83.8689H36.8913H46.3174H47.4145V84.9659V87.4515H55.3131V85.976H52.4258H51.3288V84.8789V26.3039L51.3059 26.2178C51.268 26.0761 51.2105 25.8677 51.1341 25.6071C50.981 25.0852 50.7528 24.3572 50.4534 23.5366C49.8463 21.873 48.9788 19.9193 47.9026 18.5144C46.9184 17.2295 45.1765 15.6453 43.619 14.3436C42.8517 13.7023 42.1492 13.1459 41.6385 12.7499L41.4946 12.6387L39.5777 14.208V27.6329V28.7299H38.4807H36.4885H35.3915V27.6329V27.2621H31.2955V87.4515H35.7942V84.9659V83.8689ZM37.9883 86.0629V87.449H45.2204V86.0629H37.9883ZM7.20852 21.5909H6.45588L6.185 22.2931L7.20852 22.6879C6.185 22.2931 6.18489 22.2934 6.18477 22.2937L6.18443 22.2946L6.18344 22.2972L6.18024 22.3055L6.16904 22.3351C6.15946 22.3605 6.14571 22.3972 6.12805 22.4452C6.09273 22.541 6.04177 22.6817 5.97722 22.8658C5.84812 23.2341 5.66465 23.7765 5.44334 24.4829C5.00075 25.8957 4.40662 27.9651 3.79316 30.6106C2.5664 35.901 1.26132 43.4996 0.937879 52.7612C0.732072 58.6544 1.47022 66.1345 2.24986 72.1011C2.6408 75.093 3.04437 77.7203 3.35026 79.5999C3.46056 80.2777 3.5582 80.8585 3.63801 81.3244H2.03424H0.93721V82.4215V88.5417V89.6387H2.03424H25.3185H26.4156V88.5417V85.3492H26.4158V84.2522V80.672V79.575H26.4156V77.4793H26.4158V76.3822V72.8021V71.7051H26.4156V69.6008H26.4158V68.5038V64.9236V63.8266H26.4156V61.7287H26.4158V60.6317V57.0516V55.9546H26.4156V53.8567H26.4158V52.7597V49.1795V48.0825H26.4156V45.9782H26.4158V44.8812V41.301V40.204H26.4156V38.104H26.4158V37.007V33.4268V32.3298H26.4156V24.4016V23.8124L25.9244 23.487L23.3372 21.7734L23.0618 21.5909H22.7314H7.20852ZM24.2215 79.575V77.4793H11.1863H10.0893V76.3822V72.8021V71.7051H11.1863H24.2215V69.6008H11.1863H10.0893V68.5038V64.9236V63.8266H11.1863H24.2215V61.7287H11.1863H10.0893V60.6317V57.0516V55.9546H11.1863H24.2215V53.8567H11.1863H10.0893V52.7597V49.1795V48.0825H11.1863H24.2215V45.9782H11.1863H10.0893V44.8812V41.301V40.204H11.1863H24.2215V38.104H11.1863H10.0893V37.007V33.4268V32.3298H11.1863H24.2215V24.9908L22.401 23.785H7.98059C7.86504 24.1206 7.71409 24.5738 7.53707 25.1389C7.10968 26.5031 6.53047 28.519 5.93051 31.1063C4.73043 36.2815 3.44837 43.7387 3.1306 52.8378C2.93144 58.5407 3.64856 65.8715 4.42542 71.8169C4.81274 74.781 5.21273 77.3849 5.51584 79.2475C5.66736 80.1786 5.7946 80.924 5.88383 81.4359C5.92845 81.6918 5.96355 81.8894 5.98744 82.0226L6.01463 82.1733L6.02151 82.2111L6.0232 82.2203L6.0236 82.2225L6.02369 82.223L4.94477 82.4215L6.0237 82.223L6.26198 83.5185H4.94477H3.13127V87.4447H24.2215V85.3492H11.1863H10.0893V84.2522V80.672V79.575H11.1863H24.2215ZM24.2215 81.7691H12.2833V83.1551H24.2215V81.7691ZM24.2215 75.2852V73.8992H12.2833V75.2852H24.2215ZM24.2215 66.0207H12.2833V67.4067H24.2215V66.0207ZM24.2215 59.5347V58.1486H12.2833V59.5347H24.2215ZM24.2215 51.6626V50.2766H12.2833V51.6626H24.2215ZM24.2215 42.3981H12.2833V43.7841H24.2215V42.3981ZM24.2215 35.9099V34.5239H12.2833V35.9099H24.2215ZM36.8913 40.9197H35.7942V42.0167V45.5968V46.6938H36.8913H46.3174H47.4145V45.5968V42.0167V40.9197H46.3174H36.8913ZM37.9883 44.4998V43.1137H45.2204V44.4998H37.9883ZM35.7942 32.3298H36.8913H46.3174H47.4145V33.4268V37.007V38.104H46.3174H36.8913H35.7942V37.007V33.4268V32.3298ZM37.9883 34.5239V35.9099H45.2204V34.5239H37.9883ZM36.8913 49.5116H35.7942V50.6087V54.1888V55.2858H36.8913H46.3174H47.4145V54.1888V50.6087V49.5116H46.3174H36.8913ZM37.9883 53.0918V51.7057H45.2204V53.0918H37.9883ZM35.7942 58.1015H36.8913H46.3174H47.4145V59.1985V62.7786V63.8757H46.3174H36.8913H35.7942V62.7786V59.1985V58.1015ZM37.9883 60.2955V61.6816H45.2204V60.2955H37.9883ZM35.7942 66.6892H36.8913H46.3174H47.4145V67.7862V71.3663V72.4634H46.3174H36.8913H35.7942V71.3663V67.7862V66.6892ZM37.9883 68.8832V70.2693H45.2204V68.8832H37.9883ZM36.8913 75.279H35.7942V76.376V79.9562V81.0532H36.8913H46.3174H47.4145V79.9562V76.376V75.279H46.3174H36.8913ZM37.9883 78.8591V77.4731H45.2204V78.8591H37.9883Z" fill="#0A8BFE"/>
</svg>
