<svg width="81" height="83" viewBox="0 0 81 83" fill="none" xmlns="http://www.w3.org/2000/svg">
<g clip-path="url(#clip0_1_573)">
<path d="M77.5566 50.1848V42.2954H54.2896V17.3125H47.8266V12.0528H44.8807L42.2955 4.16344H41.3635V0.21875H38.7783V4.16344H37.8463L35.2611 12.0528H32.3153V17.3125H25.8522V42.2954H2.58522V50.1848H0V81.7423H80.1418V50.1848H77.5566ZM46.534 68.5934H33.6079V59.3891C33.6079 55.764 36.5072 52.8147 40.0709 52.8147C43.6346 52.8147 46.534 55.764 46.534 59.3891V68.5934ZM40.0709 50.1848C35.0814 50.1848 31.0226 54.3149 31.0226 59.3891V68.5934H23.267V52.1768L40.0709 39.9668L56.8749 52.1768V68.5934H49.1192V59.3891C49.1192 54.3149 45.0604 50.1848 40.0709 50.1848ZM33.6079 31.7763C33.6079 28.1512 36.5072 25.2017 40.0709 25.2017C43.6346 25.2017 46.534 28.1512 46.534 31.7763C46.534 34.6967 44.6054 37.2449 41.8948 38.0602L40.0709 36.7347L38.247 38.0602C35.5351 37.2449 33.6079 34.6992 33.6079 31.7763ZM59.4601 52.8147H77.5566V68.5934H59.4601V52.8147ZM74.9714 44.9253V50.1848H58.5811L54.2896 47.0658V44.9253H74.9714ZM39.7103 6.79323H40.4328L42.1559 12.0528H37.9872L39.7103 6.79323ZM34.9005 14.6826H45.2414V17.3125H34.9005V14.6826ZM32.3153 19.9422H47.8266H51.7044V45.1883L44.3559 39.8498C47.2113 38.2705 49.1192 35.2082 49.1192 31.7763C49.1192 26.7008 45.0604 22.572 40.0709 22.572C35.0814 22.572 31.0226 26.7008 31.0226 31.7763C31.0226 35.2108 32.9292 38.2719 35.7846 39.8484L28.4374 45.1883V19.9422H32.3153ZM5.17044 44.9253H25.8522V47.0658L21.5607 50.1848H5.17044V44.9253ZM20.6818 52.8147V68.5934H2.58522V52.8147H20.6818ZM10.3409 79.1125H7.75566V76.4827H10.3409V79.1125ZM20.6818 79.1125H18.0965V76.4827H20.6818V79.1125ZM31.0226 79.1125H28.4374V76.4827H31.0226V79.1125ZM41.3635 79.1125H38.7783V76.4827H41.3635V79.1125ZM51.7044 79.1125H49.1192V76.4827H51.7044V79.1125ZM62.0453 79.1125H59.4601V76.4827H62.0453V79.1125ZM72.3862 79.1125H69.801V76.4827H72.3862V79.1125ZM74.9714 79.1125V73.853H67.2157V79.1125H64.6305V73.853H56.8749V79.1125H54.2896V73.853H46.534V79.1125H43.9487V73.853H36.1931V79.1125H33.6079V73.853H25.8522V79.1125H23.267V73.853H15.5113V79.1125H12.9261V73.853H5.17044V79.1125H2.58522V71.2232H77.5566V79.1125H74.9714Z" fill="#0A8BFE"/>
</g>
<defs>
<clipPath id="clip0_1_573">
<rect width="81" height="82" fill="white" transform="translate(0 0.21875)"/>
</clipPath>
</defs>
</svg>
